name D:\school\WTK\thesis\model\3dpredictsim\Results\Final\Fal_s1_bCst_ig1_v16.mot
datacolumns 126
datarows 4
range 1.40715317 1.43529623
endheader
time	pelvis_tilt	pelvis_list	pelvis_rotation	pelvis_tx	pelvis_ty	pelvis_tz	hip_flexion_l	hip_adduction_l	hip_rotation_l	hip_flexion_r	hip_adduction_r	hip_rotation_r	knee_angle_l	knee_angle_r	ankle_angle_l	ankle_angle_r	subtalar_angle_l	subtalar_angle_r	mtp_angle_l	mtp_angle_r	lumbar_extension	lumbar_bending	lumbar_rotation	arm_flex_l	arm_add_l	arm_rot_l	arm_flex_r	arm_add_r	arm_rot_r	elbow_flex_l	elbow_flex_r	pro_sup_l	pro_sup_r	glut_med1_l/activation	glut_med2_l/activation	glut_med3_l/activation	glut_min1_l/activation	glut_min2_l/activation	glut_min3_l/activation	semimem_l/activation	semiten_l/activation	bifemlh_l/activation	bifemsh_l/activation	sar_l/activation	add_long_l/activation	add_brev_l/activation	add_mag1_l/activation	add_mag2_l/activation	add_mag3_l/activation	tfl_l/activation	pect_l/activation	grac_l/activation	glut_max1_l/activation	glut_max2_l/activation	glut_max3_l/activation	iliacus_l/activation	psoas_l/activation	quad_fem_l/activation	gem_l/activation	peri_l/activation	rect_fem_l/activation	vas_med_l/activation	vas_int_l/activation	vas_lat_l/activation	med_gas_l/activation	lat_gas_l/activation	soleus_l/activation	tib_post_l/activation	flex_dig_l/activation	flex_hal_l/activation	tib_ant_l/activation	per_brev_l/activation	per_long_l/activation	per_tert_l/activation	ext_dig_l/activation	ext_hal_l/activation	ercspn_l/activation	intobl_l/activation	extobl_l/activation	glut_med1_r/activation	glut_med2_r/activation	glut_med3_r/activation	glut_min1_r/activation	glut_min2_r/activation	glut_min3_r/activation	semimem_r/activation	semiten_r/activation	bifemlh_r/activation	bifemsh_r/activation	sar_r/activation	add_long_r/activation	add_brev_r/activation	add_mag1_r/activation	add_mag2_r/activation	add_mag3_r/activation	tfl_r/activation	pect_r/activation	grac_r/activation	glut_max1_r/activation	glut_max2_r/activation	glut_max3_r/activation	iliacus_r/activation	psoas_r/activation	quad_fem_r/activation	gem_r/activation	peri_r/activation	rect_fem_r/activation	vas_med_r/activation	vas_int_r/activation	vas_lat_r/activation	med_gas_r/activation	lat_gas_r/activation	soleus_r/activation	tib_post_r/activation	flex_dig_r/activation	flex_hal_r/activation	tib_ant_r/activation	per_brev_r/activation	per_long_r/activation	per_tert_r/activation	ext_dig_r/activation	ext_hal_r/activation	ercspn_r/activation	intobl_r/activation	extobl_r/activation	
          1.40715317	         -8.85338449	          2.37570520	         -3.55645862	          2.25144507	          0.90782653	          0.00169738	         38.62690974	          3.20484194	         -2.41509370	        -10.10253615	         -0.99367032	          7.46481161	        -17.67253265	        -13.36740176	         12.10696351	         -1.43021569	         -7.88014390	          5.13296727	         -0.14424171	         24.63173322	          2.45543715	         -1.25887064	          1.94928730	         -6.47767989	        -14.19037476	          2.07115092	          3.63682993	        -13.47446828	         16.66707955	         25.99388350	         39.94334785	         86.51662706	         86.51662706	          0.15329620	          0.05000050	          0.05515254	          0.05000037	          0.05000044	          0.05000099	          0.37442047	          0.06685710	          0.27043893	          0.05000021	          0.05000252	          0.05782320	          0.12818634	          0.27728931	          0.24328431	          0.23484525	          0.05000507	          0.05739687	          0.10059622	          0.15608436	          0.19240470	          0.21786619	          0.05024482	          0.05000047	          0.28001525	          0.05021224	          0.05000144	          0.05000077	          0.09622017	          0.09391737	          0.08340730	          0.05781751	          0.05781750	          0.05781751	          0.05000020	          0.05000083	          0.05000126	          0.55126066	          0.37015688	          0.22278611	          0.13467987	          0.59347128	          0.39333451	          0.10280598	          0.06685600	          0.09490843	          0.10928973	          0.05418620	          0.05131385	          0.21538156	          0.12890283	          0.07729891	          0.05000104	          0.05000034	          0.05000026	          0.05000071	          0.07750273	          0.28386228	          0.07662196	          0.05008775	          0.05000372	          0.05000076	          0.46206671	          0.09825416	          0.05000606	          0.05000810	          0.05000263	          0.05000084	          0.28407319	          0.79786793	          0.09038428	          0.05000745	          0.07686817	          0.40266377	          0.15983976	          0.15983973	          0.15983958	          0.33942242	          0.46366032	          0.11987902	          0.25697148	          0.33630676	          0.42040644	          0.05000002	          0.05782149	          0.12999618	          0.05000019	          0.05000004	          0.05000017	          0.05000007	          0.05000005	          0.05000008	
          1.41653419	         -8.84210637	          2.49429870	         -3.85699715	          2.26899637	          0.90619568	          0.00149315	         38.20412548	          3.43505392	         -2.23109772	        -10.46033393	         -1.35328747	          7.31404290	        -17.72480598	        -14.36878716	         11.50711287	         -2.75333976	         -8.20805027	          6.07609439	         -0.12049210	         25.23805442	          2.65113498	         -1.45076498	          1.97555835	         -7.14840158	        -14.24471856	          1.59720774	          3.29976406	        -13.49471275	         16.82343605	         25.86289264	         40.80972976	         86.51662706	         86.51662706	          0.13256911	          0.05781758	          0.05000047	          0.08005981	          0.05781796	          0.05666830	          0.33535472	          0.05781760	          0.23804820	          0.05781755	          0.05000490	          0.05000537	          0.11085449	          0.37530228	          0.27244138	          0.23476859	          0.05000104	          0.05000343	          0.08699638	          0.17683854	          0.21027700	          0.22854395	          0.05000088	          0.05545529	          0.55704150	          0.05001502	          0.05000692	          0.06685746	          0.15776322	          0.16388538	          0.15019617	          0.05000000	          0.05000001	          0.05000000	          0.05000013	          0.05000068	          0.05000024	          0.61156807	          0.33087278	          0.23605515	          0.43544826	          0.64427595	          0.34015205	          0.08890565	          0.05781641	          0.08207586	          0.09451276	          0.05000184	          0.06685783	          0.18625991	          0.11147404	          0.06685167	          0.05000161	          0.05000026	          0.05000019	          0.05000022	          0.06702410	          0.32968331	          0.20817236	          0.17616331	          0.08253146	          0.06731436	          0.46383599	          0.08497313	          0.05000085	          0.05001241	          0.05001114	          0.08773524	          0.24566364	          0.70351056	          0.09119745	          0.07728722	          0.06685836	          0.34821955	          0.13822796	          0.13822795	          0.13822782	          0.29352906	          0.40096874	          0.10367016	          0.22222644	          0.29083516	          0.36356355	          0.05000003	          0.05000359	          0.11241947	          0.05000021	          0.05000009	          0.05000022	          0.05972186	          0.05000056	          0.05000008	
          1.42591521	         -8.82562525	          2.60301220	         -4.14063593	          2.28668480	          0.90439486	          0.00129915	         37.70755693	          3.65855735	         -1.99257377	        -10.64255653	         -1.67524757	          7.16319540	        -18.48860606	        -15.69588253	         10.67391664	         -4.07422998	         -8.55616402	          6.96427691	         -0.16073595	         25.59907599	          2.85740302	         -1.63860760	          1.99098500	         -7.79208433	        -14.30217762	          1.21262747	          2.92376811	        -13.51751130	         16.93511120	         25.67193992	         41.64190130	         86.51662706	         86.51662706	          0.23847441	          0.05000016	          0.39150254	          0.06923502	          0.05000054	          0.05000022	          0.29267755	          0.05000014	          0.21238082	          0.05000008	          0.05000050	          0.08488004	          0.34743038	          0.32456078	          0.28001568	          0.25402458	          0.05000097	          0.06890749	          0.07523386	          0.27476895	          0.26976370	          0.25917668	          0.05781774	          0.05713267	          0.53138222	          0.05000199	          0.30882595	          0.05781777	          0.17724032	          0.17280816	          0.15697517	          0.06686894	          0.06718907	          0.06685752	          0.05881165	          0.05781776	          0.05781810	          0.52887784	          0.34808519	          0.20413828	          0.37657129	          0.55716335	          0.29416006	          0.08251124	          0.05000020	          0.07097839	          0.08173416	          0.05781712	          0.05781823	          0.16107582	          0.09640184	          0.05781348	          0.05000128	          0.05000173	          0.05781683	          0.05000036	          0.05796946	          0.30068180	          0.36863062	          0.24776166	          0.10551313	          0.15681173	          0.45166799	          0.07716635	          0.06686381	          0.05781739	          0.05781819	          0.07587408	          0.21244746	          0.64660591	          0.08621038	          0.06683791	          0.05781855	          0.30113673	          0.11953816	          0.11953816	          0.11953805	          0.25384094	          0.34675371	          0.08965290	          0.19217923	          0.25151162	          0.31440630	          0.07989765	          0.05000028	          0.12703524	          0.05000033	          0.14988272	          0.05000436	          0.09275853	          0.05000028	          0.05000034	
          1.43529623	         -8.80588999	          2.70838018	         -4.40052561	          2.30440492	          0.90248511	          0.00110579	         37.06624391	          3.87109510	         -1.73097453	        -10.64683651	         -1.96323830	          7.02202545	        -19.31015607	        -17.33720410	         10.18239991	         -5.32510398	         -8.89964250	          7.78538696	         -0.17919312	         25.47591409	          3.06684841	         -1.82691731	          1.99553888	         -8.37847740	        -14.36260960	          0.93313075	          2.52538607	        -13.53971220	         17.00507349	         25.39458584	         42.42160827	         86.51662706	         86.51662706	          0.33183616	          0.37206640	          0.54684982	          0.06067650	          0.26916509	          0.34558958	          0.25310460	          0.14833945	          0.18366484	          0.10338553	          0.05781750	          0.07340346	          0.30045430	          0.28067727	          0.28295411	          0.26684588	          0.05000042	          0.05959107	          0.19863608	          0.35146382	          0.30904351	          0.27539436	          0.05000038	          0.05000023	          0.56040477	          0.08937546	          0.26707095	          0.05000024	          0.15327566	          0.14944278	          0.13575057	          0.05782759	          0.05810444	          0.05781771	          0.05085973	          0.05000032	          0.05000058	          0.71015013	          0.45172727	          0.23025883	          0.61644614	          0.72755224	          0.52770164	          0.08894809	          0.09533087	          0.06138140	          0.08845144	          0.05000037	          0.05000071	          0.13929702	          0.08336760	          0.05000126	          0.07129397	          0.05000698	          0.05000157	          0.05000290	          0.05013312	          0.28058139	          0.40173569	          0.21426639	          0.09128036	          0.13561076	          0.49491805	          0.06673511	          0.05782534	          0.05000274	          0.05000187	          0.06561547	          0.18372244	          0.66175107	          0.07455393	          0.05780117	          0.05000205	          0.26041998	          0.10337541	          0.10337541	          0.10337531	          0.21951907	          0.29986910	          0.07753093	          0.16619476	          0.21750525	          0.27189576	          0.12297602	          0.10026737	          0.10986067	          0.09098755	          0.22898699	          0.08939338	          0.11733601	          0.05000002	          0.05000009	
